<svg preserveAspectRatio="none" overflow="visible" style="display: block;" width="13" height="13" viewBox="0 0 13 13" fill="none" xmlns="http://www.w3.org/2000/svg">
<path id="&#226;&#134;&#179; Icon Color" fill-rule="evenodd" clip-rule="evenodd" d="M3.63761 2.30371e-07L3.66056 4.6879e-07V1.5C3.22724 1.5 2.93644 1.50034 2.71079 1.51437C2.49107 1.52803 2.38334 1.5526 2.31249 1.57907C1.97334 1.70579 1.70579 1.97334 1.57907 2.31249C1.5526 2.38334 1.52803 2.49107 1.51437 2.71079C1.50034 2.93644 1.5 3.22724 1.5 3.66056H4.6879e-07L2.30371e-07 3.63761C-5.90891e-06 3.23313 -1.09747e-05 2.89545 0.0172592 2.6177C0.0352242 2.32877 0.0739095 2.05522 0.173945 1.78748C0.452733 1.04134 1.04134 0.452733 1.78748 0.173945C2.05522 0.0739095 2.32877 0.0352242 2.6177 0.0172592C2.89545 -1.09747e-05 3.23313 -5.90891e-06 3.63761 2.30371e-07ZM10.2892 1.51436C10.0636 1.50034 9.77283 1.5 9.33958 1.5V4.6879e-07L9.36253 2.30371e-07C9.76694 -5.90891e-06 10.1046 -1.09747e-05 10.3823 0.0172539C10.6712 0.0352136 10.9447 0.0738871 11.2124 0.173892C11.9586 0.452676 12.5473 1.04137 12.8261 1.78763C12.9261 2.05533 12.9648 2.32885 12.9827 2.61776C13 2.89548 13 3.23313 13 3.63757V3.66056H11.5C11.5 3.22726 11.4997 2.93646 11.4856 2.71082C11.472 2.49111 11.4474 2.38338 11.421 2.31256C11.2942 1.97335 11.0267 1.70576 10.6874 1.57904C10.6166 1.55258 10.5089 1.52802 10.2892 1.51436ZM8.27476 1.5H4.72538V4.6879e-07H8.27476V1.5ZM1.5 4.72538V8.27476H4.6879e-07V4.72538H1.5ZM11.5 8.27476V4.72538H13V8.27476H11.5ZM2.30371e-07 9.36253L4.6879e-07 9.33958H1.5C1.5 9.77283 1.50034 10.0636 1.51436 10.2892C1.52802 10.5089 1.55258 10.6166 1.57904 10.6874C1.70576 11.0267 1.97335 11.2942 2.31256 11.421C2.38338 11.4474 2.49111 11.472 2.71082 11.4856C2.93646 11.4997 3.22726 11.5 3.66056 11.5V13H3.63757C3.23313 13 2.89548 13 2.61776 12.9827C2.32885 12.9648 2.05533 12.9261 1.78763 12.8261C1.04137 12.5473 0.452676 11.9586 0.173892 11.2124C0.0738871 10.9447 0.0352136 10.6712 0.0172539 10.3823C-1.09747e-05 10.1046 -5.90891e-06 9.76694 2.30371e-07 9.36253ZM11.4856 10.2892C11.4997 10.0636 11.5 9.77283 11.5 9.33958H13V9.36256C13 9.76696 13 10.1046 12.9827 10.3823C12.9648 10.6712 12.9261 10.9447 12.8261 11.2124C12.5473 11.9586 11.9586 12.5473 11.2124 12.8261C10.9447 12.9261 10.6712 12.9648 10.3823 12.9827C10.1046 13 9.76696 13 9.36256 13H9.33958V11.5C9.77283 11.5 10.0636 11.4997 10.2892 11.4856C10.5089 11.472 10.6166 11.4474 10.6874 11.421C11.0267 11.2942 11.2942 11.0267 11.421 10.6874C11.4474 10.6166 11.472 10.5089 11.4856 10.2892ZM4.72538 11.5H8.27476V13H4.72538V11.5Z" fill="#2688EB"/>
</svg>
