<svg preserveAspectRatio="none" overflow="visible" style="display: block;" width="56" height="56" viewBox="0 0 56 56" fill="none" xmlns="http://www.w3.org/2000/svg">
<g id="comments_outline_56">
<g id="&#226;&#134;&#179; Icon Color">
<path fill-rule="evenodd" clip-rule="evenodd" d="M8.96697 13.3014C9.13189 14.1133 8.60745 14.9051 7.79561 15.07C6.20104 15.3939 5 16.8076 5 18.5V36.5C5 38.4341 6.56638 40 8.49624 40H14.4917C15.8731 40 16.991 41.1204 16.991 42.5V48.4532L26.2633 40.9849L26.5348 40.7566C27.1689 40.2236 28.1151 40.3055 28.6482 40.9396C29.1813 41.5738 29.0993 42.52 28.4652 43.053L28.1696 43.3015L18.0836 51.4253C16.4558 52.7744 13.991 51.6151 13.991 49.4992V43H8.49624C4.9074 43 2 40.0888 2 36.5V18.5C2 15.3545 4.2319 12.7327 7.19838 12.13C8.01022 11.9651 8.80205 12.4896 8.96697 13.3014Z" fill="#2688EB"/>
<path fill-rule="evenodd" clip-rule="evenodd" d="M12 11.5C12 7.91015 14.9101 5 18.5 5H46.5C50.0899 5 53 7.91015 53 11.5V29.5C53 33.0899 50.0899 36 46.5 36H42V42.4936C42 44.611 39.5344 45.7667 37.9077 44.421L28.4429 36.831L28.4298 36.82C27.7993 36.2904 27.0021 36 26.1787 36H18.5C14.9101 36 12 33.0899 12 29.5V11.5ZM18.5 8C16.567 8 15 9.567 15 11.5V29.5C15 31.433 16.567 33 18.5 33H26.1787C27.7019 33 29.1766 33.535 30.3455 34.5113L39 41.4514V35.5C39 34.1193 40.1193 33 41.5 33H46.5C48.433 33 50 31.433 50 29.5V11.5C50 9.567 48.433 8 46.5 8H18.5Z" fill="#2688EB"/>
</g>
</g>
</svg>
