<svg preserveAspectRatio="none" overflow="visible" style="display: block;" width="12" height="12" viewBox="0 0 12 12" fill="none" xmlns="http://www.w3.org/2000/svg">
<g id="fire_12">
<path id="&#226;&#134;&#179; Icon Color" d="M6.09222 0.536898C6.13604 0.504399 6.19185 0.492599 6.24508 0.504574C6.34613 0.527307 6.40962 0.627654 6.38689 0.728704L6.38685 0.728695C6.36029 0.84673 6.32705 0.936582 6.28711 0.998251C4.87133 3.18439 5.49313 4.49846 6.44781 4.63968C7.43524 4.78573 8.15755 4.12416 8.003 2.69619C7.97638 2.45022 7.95412 2.24294 7.93624 2.07435C7.93202 2.03466 7.94173 1.99473 7.96369 1.9614C8.01603 1.88195 8.12287 1.85998 8.20231 1.91233L8.20244 1.91213C8.5234 2.12359 8.9075 2.50824 9.35476 3.06607C10.9461 5.0508 11.0083 6.71205 10.9994 7.42656C10.9672 9.98829 9.07092 11.75 6.49968 11.75C3.92843 11.75 2 9.9886 2 7.42656C2.01139 5.48688 2.99117 2.75656 5.69606 0.826419C5.79709 0.754329 5.92914 0.657822 6.09222 0.536898Z" fill="#ED330A"/>
</g>
</svg>
